<svg width="98" height="98" fill="none" xmlns="http://www.w3.org/2000/svg"><path d="M46.604 0h4.792c.174.041.351.072.53.092C57.911.44 63.65 1.82 69.105 4.31c9.658 4.408 17.144 11.214 22.457 20.419a47.572 47.572 0 016.145 19.016c.1.953.196 1.907.293 2.86v4.792c-.032.194-.07.387-.097.583-.306 2.336-.443 4.709-.943 7.003-2.9 13.313-10.054 23.72-21.463 31.218-6.433 4.222-13.528 6.686-21.187 7.501-.971.104-1.943.2-2.914.299h-4.792a4.474 4.474 0 00-.529-.093 47.867 47.867 0 01-14.364-3.054c-8.746-3.331-15.967-8.713-21.663-16.147C4.541 71.504 1.293 63.389.303 54.362.194 53.375.101 52.385 0 51.396v-4.792c.041-.192.072-.386.094-.581.223-4.008.955-7.97 2.179-11.793C5.777 23.38 12.246 14.747 21.68 8.333 28.33 3.815 35.69 1.157 43.69.298 44.66.193 45.633.099 46.604 0zM4.914 48.999C4.91 73.319 24.602 93.03 48.96 93.086c24.331.056 44.128-19.735 44.126-44.113-.001-24.314-19.742-44.049-44.07-44.06C24.67 4.904 4.92 24.648 4.914 49z" fill="#F9F9F9"/><path d="M57.06 32.853c-.056 5.08-.736 10.092-1.703 15.065-.495 2.543-1.13 5.059-1.675 7.593-.101.468-.315.588-.774.584a365.214 365.214 0 00-7.076-.004c-.392.003-.53-.14-.632-.486-1.968-6.711-3.572-13.498-4.238-20.476-.338-3.551-.438-7.103.324-10.62.384-1.774 1.047-3.423 2.25-4.829 2.443-2.853 8.121-2.933 10.704.589 1.347 1.837 2.044 3.928 2.35 6.135.297 2.133.413 4.29.609 6.437l-.139.012zm.072 38.874c-.047 4.466-3.721 8.092-8.167 8.06-4.517-.033-8.16-3.735-8.101-8.236a8.153 8.153 0 018.278-8.06c4.444.06 8.038 3.763 7.99 8.236z" fill="#F9F9F9"/></svg>