<svg width="25" height="19" fill="none" xmlns="http://www.w3.org/2000/svg"><g clip-path="url(#clip0_62_287)"><path d="M25 2.031V16.97c-.01.012-.027.022-.03.036-.353 1.362-1.158 1.992-2.55 1.992H4.094c-.594 0-1.188.006-1.782-.003a2.329 2.329 0 01-1.353-.46 2.377 2.377 0 01-.84-1.17C.075 17.235.04 17.1 0 16.97V2.03c.01-.012.027-.023.03-.037C.38.637 1.191.003 2.58.003h17.962c.724 0 1.448-.009 2.172.004.488.011.96.177 1.35.473.39.296.679.708.826 1.18.039.123.073.247.11.371zm-1.563 1.294l-.229.196-10.091 8.858c-.444.39-.79.388-1.232 0L1.757 3.49c-.052-.045-.109-.085-.194-.153V16.43c0 .706.276.986.975.986h19.921c.704 0 .979-.276.979-.983V3.326zM2.102 1.615l-.022.062 10.422 9.15 10.427-9.155-.024-.057H2.101z" fill="#348D00"/></g><defs><clipPath id="clip0_62_287"><path fill="#fff" d="M0 0h25v19H0z"/></clipPath></defs></svg>