<svg width="85" height="85" fill="none" xmlns="http://www.w3.org/2000/svg"><path d="M30.685 0c1.536.164 3.077.295 4.608.499 5.014.666 9.9 1.79 14.327 4.364 1.955 1.136 3.757 2.511 4.742 4.617a9.17 9.17 0 01.87 3.233c.136 2.177.085 4.37.031 6.553-.036 1.47-.814 2.668-1.687 3.794-.185.24-.395.46-.497.579.646 1.231 1.487 2.328 1.797 3.558.37 1.472.299 3.058.376 4.596.007.147-.267.38-.457.454-2.215.858-3.504 2.493-3.836 4.8-.194 1.352-.693 2.27-2.056 2.727-.688.23-1.301.722-1.904 1.156-.455.327-.853.318-1.374.164-1.105-.326-2.233-.735-3.365-.779-2.23-.087-3.904 1.026-5.048 2.92-.642 1.065-1.217 2.172-1.89 3.216a1.485 1.485 0 01-.947.617c-8.236.877-16.34.34-24.223-2.383a11.457 11.457 0 01-1.766-.71c-.647-.353-1.107-.263-1.557.308-.482.611-.974 1.244-.449 2.003.403.592.904 1.11 1.48 1.534 2.428 1.73 5.221 2.61 8.082 3.287 5.35 1.268 10.773 1.505 16.238 1.113.217-.016.435-.02.7-.032.087.486.153.945.254 1.395.36 1.602 1.385 2.753 2.639 3.703.746.565.962 1.209.867 2.128-.104 1.01-.025 2.04.016 3.06.02.526-.174.727-.696.795-7.987 1.033-15.89.717-23.664-1.508a40.128 40.128 0 01-3.89-1.406c-.555-.223-.998-.397-1.451.171-.493.617-1.088 1.224-.612 2.056a4.828 4.828 0 001.245 1.411c2.361 1.787 5.12 2.696 7.945 3.394C20.896 68.712 26.344 69 31.84 68.6c.328-.024.66-.003.946-.003.68 4.109 3.493 7.118 5.33 10.74-1.614.214-3.287.503-4.972.645-5.846.491-11.662.256-17.411-.968-3.799-.81-7.494-1.934-10.788-4.079-2.15-1.4-3.965-3.1-4.71-5.676a.688.688 0 01-.055-.156c-.06-3.111-.52-6.255.318-9.31.318-1.159 1.114-2.186 1.751-3.384-.31-.426-.756-.98-1.142-1.574A5.914 5.914 0 01.07 51.404c.04-1.77.02-3.54 0-5.31-.023-2.048.579-3.86 1.933-5.412.125-.143.227-.307.31-.421-.587-.942-1.244-1.805-1.682-2.767a6.552 6.552 0 01-.537-2.386c-.078-1.822-.012-3.65-.033-5.476-.025-2.244.794-4.149 2.275-5.733-.595-.936-1.25-1.772-1.683-2.71a6.586 6.586 0 01-.549-2.384c-.084-1.711.019-3.431-.05-5.144-.135-3.373 1.474-5.812 4.063-7.717 3.55-2.613 7.642-3.949 11.906-4.75 2.6-.489 5.251-.71 7.879-1.055.215-.029.427-.092.64-.139h6.143zm-2.893 19.628c4.697.003 9.324-.505 13.833-1.872 2.122-.644 4.182-1.443 5.99-2.76 2.045-1.49 2.105-2.792.013-4.197a22.67 22.67 0 00-4.557-2.317c-3.694-1.406-7.575-2.016-11.505-2.254-6.054-.367-12.047-.005-17.892 1.764-2.228.674-4.393 1.514-6.242 2.987-1.65 1.314-1.725 2.402-.07 3.668a16.587 16.587 0 003.634 2.107c5.369 2.248 11.038 2.853 16.796 2.874zm-.37 16.403c3.765-.023 7.344-.299 10.875-1.045 2.901-.613 5.754-1.409 8.306-2.97a10.473 10.473 0 002.29-1.991c.532-.598.307-1.286-.34-2.087-.475-.586-.95-.7-1.631-.327-.617.311-1.258.57-1.918.774a49.187 49.187 0 01-13.14 2.537c-8.18.497-16.18-.241-23.826-3.446a1.003 1.003 0 00-.853.128c-1.314 1.075-1.402 2.2-.051 3.22a18.963 18.963 0 004.05 2.373c5.238 2.192 10.784 2.747 16.238 2.834z" fill="#fff"/><path d="M61.352 84.996c-1.05 0-2.102.005-3.153 0-1.328-.008-1.84-.44-2.1-1.746-.226-1.137-.467-2.272-.677-3.413-.087-.47-.27-.778-.764-.953a19.642 19.642 0 01-5.867-3.362 1.4 1.4 0 00-1.098-.185c-1.17.324-2.31.751-3.465 1.127-1.201.39-1.808.177-2.434-.892a564.53 564.53 0 01-3.277-5.67c-.57-.998-.458-1.655.393-2.43.921-.837 1.885-1.63 2.773-2.5.246-.24.45-.714.4-1.038a20.867 20.867 0 01-.005-6.772 1.397 1.397 0 00-.371-1.055c-.845-.835-1.768-1.59-2.654-2.382-1.016-.908-1.125-1.522-.461-2.685a832.364 832.364 0 013.141-5.463c.677-1.164 1.26-1.37 2.548-.947 1.154.379 2.297.795 3.466 1.12a1.301 1.301 0 001.016-.203 21.172 21.172 0 015.935-3.418 1.292 1.292 0 00.673-.792c.289-1.15.483-2.325.717-3.49.271-1.347.797-1.796 2.153-1.802a732.8 732.8 0 016.308.001c1.232.008 1.754.439 2.017 1.64.266 1.215.484 2.441.792 3.644a1.289 1.289 0 00.65.798c2.132.78 4.112 1.93 5.848 3.395.418.357.778.373 1.268.196 1.116-.405 2.25-.757 3.382-1.118 1.192-.381 1.818-.155 2.434.904a639.353 639.353 0 013.187 5.531c.644 1.131.534 1.774-.422 2.63-.907.812-1.844 1.593-2.715 2.441a1.292 1.292 0 00-.346.966c.342 2.301.34 4.64-.008 6.94a1.201 1.201 0 00.323.898c.916.882 1.892 1.7 2.835 2.555.849.77.966 1.438.401 2.433a520.93 520.93 0 01-3.27 5.674c-.598 1.023-1.23 1.265-2.364.909-1.185-.373-2.35-.816-3.545-1.147a1.401 1.401 0 00-1.09.198 21.835 21.835 0 01-5.861 3.387 1.39 1.39 0 00-.707.852c-.319 1.229-.53 2.485-.81 3.724-.236 1.05-.787 1.484-1.876 1.497-1.106.014-2.213.003-3.32.003zm8.69-24.417a8.765 8.765 0 00-8.68-8.747c-4.734-.018-8.736 4-8.7 8.733.036 4.737 3.97 8.656 8.69 8.659 4.722.002 8.684-3.939 8.69-8.645z" fill="#fff"/></svg>