<svg width="85" height="85" fill="none" xmlns="http://www.w3.org/2000/svg"><path d="M42.002 0h.996c.899.488 1.215 1.233 1.18 2.256-.063 1.788-.018 3.58-.018 5.401 8.988.574 16.682 3.922 22.994 10.246 6.304 6.315 9.62 14.02 10.192 22.937 1.867 0 3.635.046 5.399-.018 1.023-.036 1.766.283 2.255 1.18v.996c-.49.896-1.233 1.216-2.255 1.18-1.789-.063-3.58-.018-5.407-.018-.574 8.986-3.921 16.682-10.244 22.994-6.313 6.303-14.015 9.626-22.934 10.193 0 1.865-.045 3.633.018 5.397.036 1.023-.284 1.766-1.18 2.256h-.996c-.898-.488-1.216-1.232-1.18-2.255.063-1.788.018-3.58.018-5.406-8.982-.58-16.681-3.92-22.994-10.244C11.544 60.781 8.222 53.08 7.653 44.16c-1.865 0-3.633-.045-5.397.017C1.234 44.213.487 43.9 0 42.998v-.996c.487-.901 1.233-1.215 2.255-1.18 1.788.063 3.58.018 5.404.018.574-8.987 3.92-16.683 10.245-22.995 6.315-6.302 14.02-9.62 22.936-10.19 0-1.868.045-3.636-.018-5.4-.036-1.023.28-1.768 1.18-2.255zM26.047 44.16c.647 8.41 8.087 14.48 14.793 14.754 0-.91-.003-1.817 0-2.724.005-1.288.615-2.051 1.641-2.063 1.031-.012 1.672.759 1.678 2.027.005.93.001 1.859.001 2.793 7.91-.557 14.351-7.513 14.773-14.787-.965 0-1.927.008-2.89-.002-1.154-.012-1.893-.644-1.916-1.622-.023-1.006.74-1.684 1.925-1.694.962-.009 1.924-.002 2.89-.002-.59-8.59-8.457-14.647-14.782-14.715 0 .936.006 1.873-.002 2.81-.01 1.19-.679 1.954-1.684 1.938-.977-.016-1.62-.758-1.632-1.905-.01-.962-.002-1.925-.002-2.89-7.77.403-14.503 7.6-14.736 14.762.965 0 1.929-.009 2.892.002 1.132.013 1.879.682 1.876 1.66-.002.979-.747 1.643-1.882 1.656-.963.01-1.926.002-2.943.002zm14.756-33.13c-16.812.886-29.217 14.779-29.739 29.766h11.467c1.732-10.485 7.833-16.545 18.272-18.276V11.03zM22.525 44.213H11.036c.789 16.212 14.109 29.042 29.746 29.741v-11.49c-10.451-1.76-16.495-7.802-18.257-18.25zm21.7 18.26v11.494c16.816-.878 29.187-14.82 29.709-29.763H62.47c-1.738 10.447-7.796 16.513-18.246 18.269zm-.03-39.954c10.487 1.768 16.548 7.831 18.272 18.275H73.94c-.692-16.633-14.875-29.363-29.747-29.7v11.425z" fill="#fff"/><path d="M44.16 44.212c0 1.608.007 3.129-.002 4.65-.007 1.187-.683 1.951-1.688 1.932-.975-.018-1.62-.763-1.627-1.91-.01-1.542-.003-3.086-.003-4.724-1.548 0-3.032.004-4.516-.003a3.644 3.644 0 01-.904-.072 1.646 1.646 0 01.425-3.235c.829-.032 1.66-.01 2.49-.01h2.505v-3.83c0-.332-.007-.665.002-.996.028-1.073.694-1.801 1.645-1.809.951-.008 1.655.722 1.668 1.783.018 1.575.005 3.15.005 4.852h3.56c.47 0 .941-.017 1.41.007.956.047 1.646.73 1.665 1.619a1.648 1.648 0 01-1.68 1.684c-1.41.03-2.821.007-4.232.012-.235.001-.47.032-.723.05zm14.17-24.824c.325.104.636.249.926.429a27.913 27.913 0 019.324 11.92c.422 1.016.094 1.91-.79 2.306-.878.394-1.804.03-2.226-.968a25.361 25.361 0 00-8.32-10.637c-.656-.49-.954-1.144-.645-1.963.26-.69.778-1.045 1.731-1.087zm-5.886-.137a1.654 1.654 0 111.67-1.68 1.672 1.672 0 01-1.67 1.68z" fill="#fff"/></svg>