<svg width="86" height="86" fill="none" xmlns="http://www.w3.org/2000/svg"><path d="M39.866 85.095c-1.556-.216-3.122-.384-4.668-.657-9.694-1.717-17.825-6.288-24.386-13.597C5.037 64.407 1.485 56.867.392 48.286-1.19 35.858 2.01 24.726 10.081 15.12 16.48 7.506 24.627 2.686 34.415.811 45.513-1.312 55.853.76 65.427 6.734c.305.19.607.384.912.574.074.021.15.036.225.044L73.006.867l5.26 20.178-20.009-5.215 4.498-4.455c-10.88-7.43-27.62-8.95-41.136.332C7.302 21.54 1.573 39.423 7.52 55.401c5.858 15.734 21.24 25.652 37.943 24.31 9.653-.776 17.83-4.778 24.405-11.88 6.554-7.08 9.787-15.54 9.946-25.28h5.243v2.66a4.68 4.68 0 00-.138.64c-.502 6.593-2.4 12.763-5.85 18.395-6.754 11.022-16.492 17.8-29.221 20.198-1.542.29-3.11.438-4.666.651h-5.317z" fill="#fff"/><path d="M28.229 37.861H23.15c-.719-4.756 2.73-9.22 7.492-9.76 3.053-.347 5.916.051 8.33 2.149 3.456 3.004 3.878 9.006.874 12.47-1.616 1.864-3.681 3.168-5.714 4.511-1.64 1.084-3.225 2.237-4.571 3.94H41.78v4.853H22.72c-.067-2.544.59-4.827 2.12-6.83 1.716-2.248 3.96-3.923 6.19-5.613 1.232-.934 2.487-1.855 3.608-2.914 1.394-1.318 1.904-3.009 1.578-4.925-.279-1.64-1.459-2.8-3.15-3.088-1.687-.286-3.254.396-3.938 1.936-.44.988-.591 2.105-.9 3.271zm31.784-9.879v17.51h3.114v4.377H60.04v6.154h-5.394v-6.087H43.453c.301-2.17-.433-4.255.878-6.31 3.14-4.918 6.097-9.953 9.101-14.957.312-.52.644-.716 1.247-.701 1.737.04 3.477.014 5.334.014zM47.579 45.46h6.954V33.9L47.58 45.46zm-37.046-4.697h5.174v2.54h-5.174v-2.54zm64.811 2.565h-5.166v-2.562h5.166v2.562zM41.68 14.763v-5.14h2.484v5.14H41.68zm-.012 59.646v-5.11h2.512v5.11h-2.512z" fill="#fff"/></svg>