<svg width="86" height="85" fill="none" xmlns="http://www.w3.org/2000/svg"><path d="M0 22.672c.209-1.008.323-2.047.643-3.019 1.147-3.486 3.42-6.007 6.734-7.592 1.862-.89 3.833-1.19 5.88-1.17 2.897.026 5.795.006 8.691.006h.4c.33-1.064.546-2.121.975-3.083C25.304 3.373 28.688.74 33.551.108a13.398 13.398 0 011.714-.085c5.86-.004 11.72-.06 17.58.02 4.36.061 7.774 2.045 10.249 5.613 1.534 2.211 2.175 4.704 2.154 7.387-.02 2.58-.001 5.16 0 7.74v.497l-3.626-.454V16.88c0-1.338-.005-2.676.001-4.014.026-5.17-3.999-9.23-9.157-9.231H34.885c-4.17.005-7.922 3.024-8.75 7.028-.013.06-.02.12-.038.234h.586c6.386.004 12.773-.048 19.158.032 3.685.046 6.712 1.658 9.118 4.426a12.237 12.237 0 012.76 5.592l-3.39.727c-.476-1.018-.834-2.09-1.432-3.005-1.779-2.721-4.347-4.154-7.61-4.16a8631.79 8631.79 0 00-32.584-.01c-4.875.001-8.944 3.878-9.045 8.75-.085 4.108-.026 8.219-.026 12.328l-.006 27.425c-.006 4.049 2.058 7.306 5.664 8.818 1.161.487 2.38.663 3.636.662 10.66-.005 21.322-.005 31.982.001 3.728.007 6.509-1.565 8.373-4.777.467-.805.448-.8 1.354-.572.828.209 1.665.384 2.596.597-.35.713-.638 1.433-1.035 2.088-2.244 3.702-5.529 5.862-9.838 6.234-2.26.195-4.55.055-6.826.056-8.899.004-17.797.004-26.695.002C6.787 76.11 1.71 72.123.342 66.303c-.151-.646-.23-1.31-.342-1.965V22.672zm86 56.86c-.301.81-.467 1.707-.926 2.414-2.203 3.399-7.062 3.28-9.22-.242l9.496-5.485.65 2.167v1.147z" fill="#fff"/><path d="M60.634 66.257c-12.135.045-22.137-9.84-21.93-22.194.2-11.94 9.841-21.687 22.104-21.548a21.8 21.8 0 0121.664 21.458c.192 12.56-9.933 22.349-21.838 22.284zM42.326 44.075a18.254 18.254 0 0017.721 18.564c10.214.308 18.62-7.775 18.802-17.951.178-9.985-7.707-18.398-17.956-18.561-10.168-.163-18.457 7.903-18.567 17.948zm34.713 17.933l7.25 12.545-9.425 5.44-7.249-12.544 9.424-5.441zm-66.123.94v-2.672h24.052v2.672H10.916zm24.037-36.246H10.916V24.04h24.037v2.66zm-5.529 9.415v2.678H10.916v-2.678h18.508zm-18.52 14.738v-2.639h18.52v2.64h-18.52z" fill="#fff"/><path d="M69.923 37.434l2.323 2.782-15.554 12.947-7.958-8.802 2.686-2.437 5.632 6.237 12.871-10.727z" fill="#fff"/></svg>