<svg width="70" height="71" fill="none" xmlns="http://www.w3.org/2000/svg"><path d="M50.136 4.686c-.92.943-1.826 1.869-2.728 2.8-.261.27-.517.546-.76.833-.66.78-1.46.926-2.42.641-1.46-.434-2.924-.879-4.41-1.207-2.704-.598-5.447-.668-8.2-.394a27.57 27.57 0 00-9.61 2.77 27.924 27.924 0 00-10.507 8.976c-2.506 3.532-4.138 7.444-4.842 11.71-1.048 6.364-.023 12.41 3.05 18.085 2.737 5.05 6.648 8.935 11.74 11.61 3.872 2.036 8.005 3.082 12.375 3.19 6.427.16 12.256-1.65 17.438-5.439 4.924-3.6 8.301-8.348 10.183-14.15a27.877 27.877 0 001.077-12.781 26.897 26.897 0 00-1.628-6.063c-.224-.563-.124-.96.306-1.383 1.365-1.348 2.695-2.73 4.057-4.118 6.03 11.19 5.766 28.87-7.097 40.928-13.157 12.333-33.42 12.278-46.447.7-13.39-11.902-15.588-32.08-5.102-46.275C17.598.245 36.63-2.358 50.136 4.686z" fill="#3B3C3D"/><path d="M45.527 16.51c-1.434 1.435-2.85 2.843-4.254 4.265-.293.297-.585.258-.922.13a17.7 17.7 0 00-4.055-1.033c-3.577-.458-6.873.329-9.915 2.233-2.138 1.339-3.968 3.004-5.313 5.157-1.443 2.31-2.114 4.85-2.164 7.563-.094 5.09 1.63 9.398 5.569 12.708a15.087 15.087 0 008.281 3.522c5.986.626 10.782-1.596 14.445-6.285 1.795-2.3 2.718-4.978 2.974-7.892a15.561 15.561 0 00-1.08-7.308c-.125-.31-.123-.544.137-.8 1.415-1.393 2.813-2.801 4.218-4.203a.249.249 0 01.068-.035c4.381 6.77 4.63 18.77-3.75 26.826-8.382 8.058-21.705 8.133-30.24.145-8.447-7.904-9.385-21.298-1.726-30.277 7.574-8.878 19.902-9.577 27.727-4.716z" fill="#3B3C3D"/><path d="M59.428 0c.08.803.157 1.532.222 2.263.19 2.116.38 4.233.556 6.35.09 1.072.115 1.103 1.19 1.196 2.724.235 5.447.475 8.17.72.146.024.29.057.432.1a3.81 3.81 0 01-.264.343 75569.78 75569.78 0 00-10.206 10.21c-.382.384-.793.522-1.327.466-1.7-.18-3.404-.327-5.105-.498-.451-.045-.796.107-1.112.424a5170.819 5170.819 0 01-13.52 13.552c-.589.588-1.228 1.101-2.12 1.074-1.082-.034-1.896-.535-2.327-1.535-.426-.988-.245-1.924.497-2.696 1.16-1.206 2.354-2.378 3.538-3.561 3.441-3.44 6.885-6.875 10.333-10.306.557-.552.496-1.165.429-1.833-.16-1.585-.292-3.173-.446-4.76-.036-.37.093-.64.35-.897C52.157 7.188 55.59 3.76 59.023.33c.106-.106.232-.19.406-.331z" fill="#3B3C3D"/><path d="M35.67 26.201c-.79.842-1.581 1.698-2.388 2.538-.78.813-1.608 1.576-2.09 2.633-1.49 3.266.426 7.102 3.935 7.842 1.963.415 3.676-.112 5.12-1.465 1.127-1.054 2.198-2.167 3.294-3.253.07-.07.152-.128.264-.222.283.926.275 1.825.104 2.717-.615 3.21-3.139 6.797-7.398 7.702-6.357 1.35-12.217-4.098-11.279-10.529.545-3.735 2.766-6.145 6.17-7.563 1.268-.528 2.583-.75 3.953-.482.138.027.273.071.315.082z" fill="#3B3C3D"/></svg>