<svg width="62" height="70" fill="none" xmlns="http://www.w3.org/2000/svg"><path d="M0 38.786v-2.072c.02-.104.046-.207.056-.313.076-.745.12-1.494.226-2.235.579-4.036 2.155-7.626 4.887-10.672 1.633-1.822 3.467-3.396 5.762-4.352 3.005-1.25 6.138-1.433 9.325-1.103 3.082.32 6.046 1.13 8.934 2.236.092.035.19.055.314.09v-.471c0-3.702-.005-7.405.011-11.107.008-.293.096-.577.255-.823a19.812 19.812 0 013.922-4.32C35.736 1.962 38.016.754 40.635.25c.523-.1 1.053-.167 1.58-.25h1.928c.529.072 1.061.127 1.587.22 3.515.617 6.738 1.97 9.73 3.893.398.255.46.572.208.97-.99 1.562-2.077 3.049-3.416 4.336-2.24 2.155-4.858 3.6-7.963 3.985-3.113.387-6.246.333-9.375.183-.482-.023-.962-.104-1.502-.164v6.896c.666-.232 1.334-.478 2.01-.697 3.612-1.17 7.29-1.817 11.1-1.335 2.302.29 4.466 1.002 6.341 2.388 4.692 3.467 7.301 8.164 8.064 13.917.093.705.145 1.415.216 2.122v2.143c-.02.139-.052.277-.059.417-.144 2.844-.717 5.608-1.613 8.303-1.92 5.77-5.1 10.792-9.214 15.23-2.62 2.826-5.768 4.86-9.486 5.968-2.316.69-4.692.998-7.096 1.138a1.563 1.563 0 00-.318.087h-5.571a2.451 2.451 0 00-.325-.08c-1.489-.167-2.988-.264-4.465-.506-4.546-.743-8.443-2.777-11.646-6.092a43.304 43.304 0 01-8.345-12.318C1.55 47.789.586 44.428.201 40.911.123 40.204.066 39.494 0 38.786zm30.528 26.906c2.108-.003 4.21-.074 6.298-.402 3.808-.598 7.133-2.178 9.837-4.938 3.572-3.644 6.334-7.837 8.192-12.597 1.61-4.125 2.405-8.384 1.789-12.824-.546-3.94-2.247-7.28-5.22-9.956-1.49-1.34-3.228-2.115-5.195-2.408-2.343-.35-4.652-.111-6.942.409a31.084 31.084 0 00-7.53 2.802c-.236.124-.428.149-.687.012-1.919-1.013-3.936-1.79-6.014-2.404-3.044-.9-6.132-1.47-9.325-1.098-1.837.215-3.562.764-5.043 1.906-3.93 3.031-5.927 7.098-6.324 11.992-.26 3.221.22 6.361 1.173 9.432 1.7 5.475 4.693 10.198 8.551 14.384 2.544 2.76 5.7 4.466 9.404 5.159 2.329.435 4.678.524 7.036.531z" fill="#3B3C3D"/><path d="M25.83 60.85a11.14 11.14 0 01-3.095-.311c-3.39-.808-6.161-2.635-8.47-5.198-1.407-1.563-2.632-3.255-3.483-5.194-1.27-2.896-1.71-5.93-1.44-9.065.085-.992.287-1.975.466-2.956.085-.409.226-.804.417-1.176.044.122.09.243.132.365.876 2.575 1.723 5.161 2.635 7.724.923 2.59 2.396 4.878 4.028 7.073 1.36 1.827 2.8 3.587 4.483 5.124 1.167 1.066 2.415 2.044 3.628 3.059.2.167.41.325.7.555z" fill="#3B3C3D"/></svg>