<svg width="87" height="45" fill="none" xmlns="http://www.w3.org/2000/svg"><path d="M25.301 22.093c0 5.712-.009 11.424.007 17.136.005 1.577-.454 2.93-1.728 3.913-1.436 1.109-3.032 1.3-4.67.545-1.684-.776-2.572-2.17-2.602-4.018-.047-2.88-.018-5.763-.018-8.644l-.006-26.088c-.002-1.472.38-2.773 1.513-3.76C19.217-.06 20.858-.328 22.57.4c1.739.741 2.698 2.144 2.713 4.045.039 4.842.016 9.684.018 14.527l.001 3.12zm45.41-.016c0 5.695-.011 11.39.007 17.085.006 1.76-.545 3.224-2.052 4.21-1.428.933-2.965 1.021-4.477.26-1.57-.79-2.447-2.122-2.473-3.895-.042-2.898-.017-5.797-.018-8.696 0-8.696-.003-17.392-.006-26.088-.002-1.333.29-2.537 1.237-3.518C64.237.081 66.157-.364 67.865.35c1.815.759 2.797 2.174 2.825 4.13.05 3.461.018 6.923.02 10.384v7.213h.001zm10.96.103c0 4.603.01 9.206-.006 13.81a4.496 4.496 0 01-7.946 2.822 4.37 4.37 0 01-1.05-2.87c-.004-5.643-.004-11.286-.001-16.929 0-3.546-.01-7.092.001-10.638.007-2.422 1.847-4.396 4.192-4.53 2.623-.15 4.793 1.845 4.805 4.476.02 4.62.006 9.24.005 13.86zm-76.345-.153c0-4.62-.01-9.24.004-13.86a4.5 4.5 0 018.274-2.401c.532.826.735 1.739.734 2.722-.01 8.847-.012 17.695-.005 26.543 0 .91-.02 1.8-.418 2.649-.884 1.884-2.939 2.952-4.932 2.542-2.12-.436-3.635-2.199-3.65-4.336-.025-3.58-.01-7.16-.012-10.74v-3.119h.005zM59.7 18.612v6.901H27.303v-6.901H59.7zm23.952 7.728v-8.51c1.562.062 3.22 2.027 3.34 3.939.133 2.134-1.397 4.259-3.34 4.57zm-80.327-.003C1.506 26.035.002 24.09 0 22.075c-.002-2.02 1.482-3.946 3.325-4.272v8.535z" fill="#3B3C3D"/></svg>