<svg width="34" height="35" fill="none" xmlns="http://www.w3.org/2000/svg"><g style="mix-blend-mode:multiply" opacity=".08"><path style="mix-blend-mode:multiply" opacity=".08" d="M25.289 22.462c.009-.095.012-.19.01-.285-.02-1.328.498-2.696 1.456-3.634.464-.458.926-.915 1.377-1.387a4.276 4.276 0 013.485-1.276c.072.007.144.011.216.013 1.238.029 2.422-.92 2.119-2.242-.3-1.302-.683-2.801-2.921-2.765a1.426 1.426 0 01-.208-.036c-1.37-.178-2.643-.885-3.603-1.868a69.656 69.656 0 01-1.448-1.56c-.895-1.012-1.595-2.264-1.829-3.604a2.71 2.71 0 00-.055-.245c-.189-.697-.624-1.318-1.13-1.822-.476-.472-1.076-.9-1.735-1.047-1.322-.296-2.176.906-2.137 2.104.05 1.528 1.379 2.811 2.878 3.002l.053.006c1.273.141 2.41.841 3.275 1.766.678.74 1.338 1.496 2.035 2.219.86.902 1.593 2.03 1.74 3.296a.863.863 0 00.003.032c.146 1.175-.252 2.287-1.055 3.162-.63.668-1.245 1.348-1.902 1.989-.93.911-2.21 1.393-3.489 1.442l-.06.002c-1.643.082-3.135 1.375-3.16 3.079a2.726 2.726 0 001.814 2.607 2.71 2.71 0 001.112.146c1.585-.118 3.011-1.506 3.159-3.094z" fill="url(#paint0_linear_62_318)"/><path style="mix-blend-mode:multiply" opacity=".08" d="M12.242 25.552c.1.009.2.013.301.012 1.387-.015 2.873.482 3.85 1.504.458.475.91.955 1.369 1.43.88.935 1.326 2.19 1.148 3.473-.01.07-.016.14-.02.21-.046.846.4 1.77 1.243 2.043.955.31 2.305-.189 3.015-.821.413-.368.585-.889.734-1.423.136-.49.055-.96.205-1.457.324-1.074.934-2.072 1.689-2.897.48-.525.967-1.044 1.46-1.558.95-.968 2.213-1.673 3.559-1.881.081-.013.162-.04.249-.051 1.81-.237 2.613-1.528 2.91-2.837.122-.543.004-1.119-.395-1.52-.446-.45-1.095-.596-1.701-.562-1.476.083-2.785 1.321-3 2.798l-.006.05c-.157 1.25-.884 2.367-1.744 3.253-.706.715-1.37 1.466-2.054 2.203-.86.908-1.98 1.611-3.24 1.754l-.016.002c-.005 0-.01 0-.016.002-1.18.134-2.3-.265-3.152-1.104-.649-.657-1.28-1.332-1.933-1.985a5.018 5.018 0 01-1.47-3.41l-.001-.058c-.066-1.702-1.586-2.983-3.238-3.02-1.55-.035-2.974 1.097-2.856 2.731.114 1.593 1.542 2.972 3.11 3.119z" fill="url(#paint1_linear_62_318)"/><path style="mix-blend-mode:multiply" opacity=".08" d="M7.616 4.686C7.08 6.068 5.822 7.331 4.442 7.864c-.263.102-.932.377-1.183.085-.232-.27.198-.769.348-.966.443-.583.977-1.11 1.497-1.63.52-.522 1.047-1.059 1.63-1.503.199-.152.693-.577.964-.338.289.254.02.908-.082 1.174z" fill="url(#paint2_linear_62_318)"/><path style="mix-blend-mode:multiply" opacity=".08" d="M30.811 6.983c.146.192.58.695.348.963-.252.29-.916.012-1.182-.092-1.381-.54-2.636-1.81-3.174-3.193-.103-.264-.373-.913-.083-1.159.271-.23.77.2.965.349.582.443 1.11.979 1.63 1.5.52.52 1.053 1.05 1.496 1.632z" fill="url(#paint3_linear_62_318)"/><path style="mix-blend-mode:multiply" opacity=".08" d="M7.62 30.302c.102.26.369.906.08 1.152-.273.233-.768-.193-.967-.345-.582-.444-1.109-.98-1.628-1.5-.52-.521-1.055-1.05-1.499-1.633-.146-.193-.58-.695-.34-.956.259-.283.927.005 1.19.11 1.365.548 2.626 1.798 3.165 3.172z" fill="url(#paint4_linear_62_318)"/><path style="mix-blend-mode:multiply" opacity=".08" d="M30.812 27.976c-.444.584-.978 1.113-1.498 1.634-.52.52-1.047 1.055-1.629 1.499-.194.148-.693.579-.966.355-.29-.239-.022-.88.08-1.137.54-1.376 1.798-2.633 3.165-3.187.265-.108.929-.398 1.188-.117.24.26-.198.766-.34.953z" fill="url(#paint5_linear_62_318)"/><path style="mix-blend-mode:multiply" opacity=".08" d="M12.67 29.266a3.123 3.123 0 00-.058-.007c-1.354-.152-2.576-.916-3.498-1.895-.546-.591-1.084-1.19-1.65-1.764-.931-.954-1.722-2.145-1.891-3.497a2.38 2.38 0 00-.002-.016l-.008-.056c-.178-1.258.242-2.46 1.159-3.35.458-.434.925-.859 1.36-1.315.999-1.051 2.414-1.58 3.841-1.57h.072c1.722-.015 3.202-1.416 3.234-3.156.031-1.648-1.265-3.128-2.964-3.011-1.648.113-3.056 1.62-3.171 3.251a3.038 3.038 0 00-.004.067c-.065 1.38-.592 2.816-1.574 3.806-.458.458-.918.911-1.393 1.351-.955.862-2.207 1.252-3.483 1.13a1.524 1.524 0 00-.052-.004c-.61-.041-1.263.106-1.715.555-.407.405-.511.969-.404 1.522.364 1.872 1.249 2.592 2.94 2.84.034.005.066.015.099.022 1.4.29 2.692 1.022 3.695 2.039.459.473.912.951 1.36 1.434.925 1.014 1.665 2.274 1.954 3.625.01.046.02.092.033.139.34 1.26 1.557 2.566 2.849 2.85 1.301.285 2.177-.842 2.137-2.05-.05-1.503-1.407-2.745-2.866-2.94z" fill="url(#paint6_linear_62_318)"/><path style="mix-blend-mode:multiply" opacity=".08" d="M22.207 9.688a2.735 2.735 0 00-.304-.008c-1.432.041-2.898-.523-3.877-1.585-.454-.49-.9-.988-1.353-1.48-.882-.977-1.327-2.248-1.156-3.564.01-.071.017-.144.02-.215.052-1.22-.811-2.43-2.148-2.13-.67.15-1.545.405-2.021.89-.504.513-.663 1.331-.843 2.034-.018.07-.033.138-.045.205-.236 1.344-.948 2.622-1.851 3.631a74.906 74.906 0 01-1.45 1.545c-.959.972-2.21 1.665-3.572 1.84-.081.01-.162.043-.25.044-1.723.01-2.608 1.46-2.89 2.765-.289 1.337.86 2.232 2.087 2.236 1.504.005 2.784-1.25 2.991-2.73l.007-.051c.16-1.276.879-2.406 1.751-3.32C8 9.071 8.664 8.321 9.34 7.578c.853-.92 1.987-1.647 3.256-1.783l.016-.002.017-.002c1.194-.138 2.329.278 3.18 1.142.656.686 1.282 1.396 1.919 2.1A5.69 5.69 0 0119.2 12.68l.002.06c.066 1.727 1.532 3.103 3.248 3.103 1.615 0 2.987-1.274 2.878-2.931-.106-1.62-1.501-3.09-3.122-3.225z" fill="url(#paint7_linear_62_318)"/></g><path d="M24.867 21.804c.009-.095.012-.19.011-.285-.02-1.328.497-2.696 1.455-3.634.464-.459.926-.916 1.377-1.388a4.277 4.277 0 013.485-1.275c.072.007.144.011.216.013 1.238.028 2.422-.92 2.119-2.242-.3-1.302-.683-2.802-2.921-2.765a1.426 1.426 0 01-.208-.037c-1.37-.177-2.643-.885-3.603-1.867a69.914 69.914 0 01-1.448-1.56c-.895-1.012-1.595-2.264-1.83-3.604a2.71 2.71 0 00-.054-.245c-.19-.697-.625-1.319-1.132-1.822C21.86.62 21.26.193 20.601.045c-1.322-.295-2.176.907-2.137 2.105.05 1.528 1.38 2.811 2.878 3.002l.053.006c1.273.141 2.41.84 3.276 1.765.678.74 1.337 1.497 2.034 2.22.861.902 1.594 2.03 1.74 3.296 0 .005 0 .01.002.016l.002.016c.146 1.175-.253 2.287-1.056 3.162-.63.668-1.245 1.348-1.902 1.989-.929.911-2.209 1.393-3.489 1.442l-.06.002c-1.643.082-3.135 1.375-3.16 3.079a2.726 2.726 0 001.814 2.607 2.71 2.71 0 001.112.146c1.585-.118 3.011-1.506 3.159-3.094z" fill="#348D00"/><path d="M11.82 24.893c.1.01.2.014.301.013 1.387-.015 2.873.482 3.85 1.504.458.475.91.955 1.369 1.43.88.935 1.327 2.19 1.149 3.473-.01.07-.017.14-.02.21-.047.845.4 1.77 1.242 2.043.955.309 2.306-.19 3.015-.822.413-.368.585-.888.734-1.423.136-.49.055-.96.205-1.456.324-1.074.934-2.072 1.689-2.897.48-.525.967-1.044 1.46-1.558.95-.968 2.213-1.673 3.559-1.881.081-.013.162-.04.249-.052 1.81-.236 2.614-1.527 2.91-2.836.122-.543.004-1.119-.395-1.52-.446-.45-1.095-.596-1.701-.562-1.476.083-2.785 1.321-3 2.797a2.3 2.3 0 00-.006.051c-.156 1.25-.883 2.367-1.744 3.252-.705.716-1.37 1.467-2.054 2.204-.859.908-1.979 1.611-3.24 1.754l-.016.001-.016.002c-1.18.134-2.3-.264-3.152-1.103-.648-.657-1.28-1.332-1.933-1.985a5.017 5.017 0 01-1.47-3.41l-.001-.058c-.066-1.702-1.586-2.984-3.238-3.02-1.55-.035-2.973 1.097-2.856 2.73.114 1.594 1.543 2.973 3.11 3.12zM7.194 4.028C6.658 5.409 5.4 6.672 4.02 7.206c-.263.102-.932.377-1.183.085-.232-.27.198-.769.348-.966.443-.583.977-1.11 1.497-1.631.52-.521 1.047-1.058 1.63-1.502.199-.152.694-.577.964-.339.289.255.021.909-.082 1.175zM30.39 6.325c.145.192.58.695.347.962-.252.29-.916.013-1.182-.091-1.381-.54-2.636-1.81-3.174-3.193-.103-.264-.373-.913-.083-1.16.271-.23.77.201.965.35.582.443 1.11.979 1.63 1.5.52.52 1.053 1.049 1.496 1.632zM7.199 29.644c.102.26.368.906.079 1.152-.273.232-.767-.193-.967-.345-.582-.444-1.108-.98-1.628-1.5-.52-.522-1.055-1.05-1.498-1.633-.147-.193-.58-.695-.34-.957.258-.282.927.006 1.188.111C5.4 27.02 6.66 28.27 7.2 29.644z" fill="#348D00"/><path d="M30.39 27.318c-.444.583-.978 1.112-1.498 1.634-.52.52-1.047 1.055-1.629 1.498-.194.149-.693.58-.966.355-.29-.238-.022-.879.08-1.136.54-1.376 1.798-2.633 3.165-3.188.265-.107.929-.397 1.188-.116.24.259-.198.766-.34.953zm-18.142 1.29a3.113 3.113 0 00-.058-.007c-1.354-.152-2.576-.916-3.498-1.895-.546-.591-1.084-1.19-1.65-1.764-.931-.954-1.722-2.145-1.891-3.497a2.38 2.38 0 00-.002-.016l-.008-.056c-.177-1.258.242-2.46 1.159-3.35.458-.434.925-.859 1.36-1.315.999-1.052 2.415-1.58 3.842-1.57h.07c1.723-.016 3.203-1.416 3.235-3.157.031-1.647-1.265-3.127-2.964-3.01-1.648.113-3.056 1.62-3.171 3.25a3.1 3.1 0 00-.004.068c-.065 1.379-.592 2.816-1.574 3.806-.458.458-.918.911-1.393 1.35-.955.863-2.207 1.253-3.483 1.132a1.524 1.524 0 00-.052-.005c-.61-.042-1.263.106-1.715.555-.407.405-.511.968-.404 1.522.364 1.872 1.249 2.592 2.94 2.84.034.005.066.015.099.022 1.4.29 2.692 1.022 3.695 2.038.459.474.912.952 1.36 1.435.925 1.014 1.665 2.273 1.954 3.625.01.045.021.092.034.138.338 1.26 1.556 2.566 2.848 2.85 1.301.286 2.177-.841 2.137-2.05-.05-1.502-1.407-2.744-2.866-2.939z" fill="#348D00"/><path d="M21.785 9.03a2.735 2.735 0 00-.304-.01c-1.432.042-2.898-.522-3.876-1.584-.455-.49-.9-.987-1.354-1.479-.882-.978-1.327-2.248-1.156-3.564.01-.072.017-.144.02-.216.053-1.22-.811-2.43-2.148-2.13-.67.15-1.545.406-2.021.89-.504.513-.663 1.332-.843 2.035a2.68 2.68 0 00-.045.204C9.822 4.52 9.11 5.798 8.207 6.808a74.879 74.879 0 01-1.45 1.544c-.959.973-2.21 1.665-3.572 1.84-.081.01-.162.043-.25.044-1.723.01-2.608 1.46-2.89 2.766-.289 1.336.86 2.231 2.088 2.236 1.503.005 2.783-1.252 2.99-2.73l.008-.052c.158-1.276.878-2.406 1.75-3.32.697-.722 1.361-1.473 2.036-2.215.853-.92 1.987-1.648 3.256-1.784l.017-.002c.005 0 .01 0 .016-.002 1.194-.138 2.329.278 3.18 1.143.656.686 1.282 1.395 1.919 2.099a5.69 5.69 0 011.474 3.647l.002.06c.067 1.727 1.532 3.103 3.249 3.103 1.614 0 2.986-1.273 2.878-2.93-.107-1.62-1.502-3.09-3.123-3.225z" fill="#348D00"/><defs><linearGradient id="paint0_linear_62_318" x1="18.885" y1="13.111" x2="34" y2="13.111" gradientUnits="userSpaceOnUse"><stop stop-color="#fff"/><stop offset="1"/></linearGradient><linearGradient id="paint1_linear_62_318" x1="11140.7" y1="10427.4" x2="23122.3" y2="10427.4" gradientUnits="userSpaceOnUse"><stop stop-color="#fff"/><stop offset="1"/></linearGradient><linearGradient id="paint2_linear_62_318" x1="1545.47" y1="1316.53" x2="1961.75" y2="1316.53" gradientUnits="userSpaceOnUse"><stop stop-color="#fff"/><stop offset="1"/></linearGradient><linearGradient id="paint3_linear_62_318" x1="3669.56" y1="1315.89" x2="4085.83" y2="1315.89" gradientUnits="userSpaceOnUse"><stop stop-color="#fff"/><stop offset="1"/></linearGradient><linearGradient id="paint4_linear_62_318" x1="1545.36" y1="3430.92" x2="1961.38" y2="3430.92" gradientUnits="userSpaceOnUse"><stop stop-color="#fff"/><stop offset="1"/></linearGradient><linearGradient id="paint5_linear_62_318" x1="3668.01" y1="3431.38" x2="4083.97" y2="3431.38" gradientUnits="userSpaceOnUse"><stop stop-color="#fff"/><stop offset="1"/></linearGradient><linearGradient id="paint6_linear_62_318" x1="4217.42" y1="14722.1" x2="8637.22" y2="14722.1" gradientUnits="userSpaceOnUse"><stop stop-color="#fff"/><stop offset="1"/></linearGradient><linearGradient id="paint7_linear_62_318" x1="6951.12" y1="5055" x2="18970.6" y2="5055" gradientUnits="userSpaceOnUse"><stop stop-color="#fff"/><stop offset="1"/></linearGradient></defs></svg>