<svg width="204" height="202" fill="none" xmlns="http://www.w3.org/2000/svg"><path d="M1.676 3.351a1.676 1.676 0 100-3.351 1.676 1.676 0 000 3.351zm11.148 0a1.676 1.676 0 100-3.351 1.676 1.676 0 000 3.351zm11.146 0a1.676 1.676 0 100-3.351 1.676 1.676 0 000 3.351zm12.825-1.675a1.676 1.676 0 11-3.352 0 1.676 1.676 0 013.352 0zm9.472 1.675a1.676 1.676 0 100-3.351 1.676 1.676 0 000 3.351zM59.09 1.676a1.676 1.676 0 11-3.352 0 1.676 1.676 0 013.351 0zm9.472 1.675a1.676 1.676 0 100-3.351 1.676 1.676 0 000 3.351zm12.824-1.675a1.676 1.676 0 11-3.353-.001 1.676 1.676 0 013.353 0zm9.471 1.675a1.676 1.676 0 100-3.351 1.676 1.676 0 000 3.351zm11.149 0a1.675 1.675 0 100-3.35 1.675 1.675 0 000 3.35zM1.676 15.724a1.676 1.676 0 100-3.35 1.676 1.676 0 000 3.35zm11.148 0a1.676 1.676 0 100-3.35 1.676 1.676 0 000 3.35zm11.146 0a1.676 1.676 0 100-3.351 1.676 1.676 0 000 3.351zm12.825-1.675a1.676 1.676 0 11-3.353 0 1.676 1.676 0 013.353 0zm9.472 1.675a1.676 1.676 0 100-3.351 1.676 1.676 0 000 3.351zm12.823-1.675a1.676 1.676 0 11-3.352 0 1.676 1.676 0 013.351 0zm9.472 1.675a1.676 1.676 0 100-3.35 1.676 1.676 0 000 3.35zm12.824-1.675a1.676 1.676 0 11-3.353-.001 1.676 1.676 0 013.353 0zm9.471 1.675a1.676 1.676 0 100-3.35 1.676 1.676 0 000 3.35zm11.149 0a1.675 1.675 0 100-3.35 1.675 1.675 0 000 3.35zM1.676 28.097a1.676 1.676 0 100-3.351 1.676 1.676 0 000 3.351zm11.148 0a1.676 1.676 0 100-3.351 1.676 1.676 0 000 3.35zm11.146 0a1.676 1.676 0 100-3.352 1.676 1.676 0 000 3.352zm12.825-1.676a1.676 1.676 0 11-3.352 0 1.676 1.676 0 013.352 0zm9.472 1.676a1.676 1.676 0 100-3.352 1.676 1.676 0 000 3.352zm12.823-1.676a1.675 1.675 0 11-3.351 0 1.675 1.675 0 013.35 0zm9.472 1.676a1.676 1.676 0 100-3.351 1.676 1.676 0 000 3.351zm12.824-1.676a1.677 1.677 0 11-3.353 0 1.677 1.677 0 013.353 0zm9.471 1.676a1.676 1.676 0 100-3.351 1.676 1.676 0 000 3.351zm11.149 0a1.675 1.675 0 100-3.35 1.675 1.675 0 000 3.35zM1.676 40.47a1.676 1.676 0 100-3.351 1.676 1.676 0 000 3.351zm11.148 0a1.676 1.676 0 100-3.351 1.676 1.676 0 000 3.351zm11.146 0a1.676 1.676 0 100-3.351 1.676 1.676 0 000 3.351zm12.825-1.676a1.676 1.676 0 11-3.353 0 1.676 1.676 0 013.353 0zm9.472 1.676a1.676 1.676 0 100-3.351 1.676 1.676 0 000 3.351zm12.823-1.676a1.676 1.676 0 11-3.352 0 1.676 1.676 0 013.351 0zm9.472 1.676a1.676 1.676 0 100-3.351 1.676 1.676 0 000 3.351zm12.824-1.676a1.676 1.676 0 11-3.353 0 1.676 1.676 0 013.353 0zm9.471 1.676a1.676 1.676 0 100-3.351 1.676 1.676 0 000 3.351zm11.149 0a1.675 1.675 0 100-3.35 1.675 1.675 0 000 3.35zM1.676 52.843a1.676 1.676 0 100-3.352 1.676 1.676 0 000 3.352zm11.148 0a1.676 1.676 0 100-3.352 1.676 1.676 0 000 3.352zm11.146 0a1.676 1.676 0 100-3.352 1.676 1.676 0 000 3.352zm12.825-1.676a1.676 1.676 0 11-3.352 0 1.676 1.676 0 013.352 0zm9.472 1.676a1.676 1.676 0 100-3.352 1.676 1.676 0 000 3.352zm12.823-1.676a1.675 1.675 0 11-3.351 0 1.675 1.675 0 013.35 0zm9.472 1.676a1.676 1.676 0 100-3.352 1.676 1.676 0 000 3.352zm12.824-1.676a1.677 1.677 0 11-3.353-.001 1.677 1.677 0 013.353 0zm9.471 1.676a1.676 1.676 0 100-3.352 1.676 1.676 0 000 3.352zm11.149 0a1.675 1.675 0 100-3.351 1.675 1.675 0 000 3.35zM1.676 65.216a1.676 1.676 0 100-3.352 1.676 1.676 0 000 3.352zm11.148 0a1.676 1.676 0 100-3.352 1.676 1.676 0 000 3.352zm11.146 0a1.676 1.676 0 100-3.352 1.676 1.676 0 000 3.352zm12.825-1.676a1.676 1.676 0 11-3.352 0 1.676 1.676 0 013.352 0zm9.472 1.676a1.676 1.676 0 100-3.352 1.676 1.676 0 000 3.352zM59.09 63.54a1.676 1.676 0 11-3.352 0 1.676 1.676 0 013.351 0zm9.472 1.676a1.676 1.676 0 100-3.352 1.676 1.676 0 000 3.352zm12.824-1.676a1.676 1.676 0 11-3.353-.001 1.676 1.676 0 013.353 0zm9.471 1.676a1.676 1.676 0 100-3.352 1.676 1.676 0 000 3.352zm11.149 0a1.675 1.675 0 100-3.351 1.675 1.675 0 000 3.35zM1.676 77.588a1.676 1.676 0 100-3.351 1.676 1.676 0 000 3.351zm11.148 0a1.676 1.676 0 100-3.351 1.676 1.676 0 000 3.351zm11.146 0a1.676 1.676 0 100-3.351 1.676 1.676 0 000 3.351zm12.825-1.676a1.676 1.676 0 11-3.352 0 1.676 1.676 0 013.352 0zm9.472 1.676a1.676 1.676 0 100-3.351 1.676 1.676 0 000 3.351zm12.823-1.676a1.676 1.676 0 11-3.352 0 1.676 1.676 0 013.351 0zm9.472 1.676a1.676 1.676 0 100-3.351 1.676 1.676 0 000 3.351zm12.824-1.676a1.677 1.677 0 11-3.353 0 1.677 1.677 0 013.353 0zm9.471 1.676a1.676 1.676 0 100-3.351 1.676 1.676 0 000 3.351zm11.149 0a1.675 1.675 0 100-3.35 1.675 1.675 0 000 3.35zM1.676 89.961a1.676 1.676 0 100-3.351 1.676 1.676 0 000 3.351zm11.148 0a1.676 1.676 0 100-3.351 1.676 1.676 0 000 3.351zm11.146 0a1.676 1.676 0 100-3.351 1.676 1.676 0 000 3.351zm12.825-1.675a1.676 1.676 0 11-3.352 0 1.676 1.676 0 013.352 0zm9.472 1.675a1.676 1.676 0 100-3.351 1.676 1.676 0 000 3.351zm12.823-1.675a1.676 1.676 0 11-3.352 0 1.676 1.676 0 013.351 0zm9.472 1.675a1.676 1.676 0 100-3.351 1.676 1.676 0 000 3.351zm12.824-1.675a1.676 1.676 0 11-3.352-.001 1.676 1.676 0 013.352 0zm9.471 1.675a1.676 1.676 0 100-3.351 1.676 1.676 0 000 3.351zm11.149 0a1.675 1.675 0 100-3.35 1.675 1.675 0 000 3.35zm11.135-86.61a1.675 1.675 0 100-3.35 1.675 1.675 0 000 3.35zm11.148 0a1.676 1.676 0 100-3.352 1.676 1.676 0 000 3.352zm11.146 0a1.676 1.676 0 100-3.35 1.676 1.676 0 000 3.35zm11.149 0a1.676 1.676 0 100-3.352 1.676 1.676 0 000 3.352zm11.148 0a1.676 1.676 0 100-3.35 1.676 1.676 0 000 3.35zm11.147 0a1.675 1.675 0 100-3.35 1.675 1.675 0 000 3.35zm12.824-1.675a1.677 1.677 0 01-3.319.326 1.671 1.671 0 01.712-1.72 1.678 1.678 0 012.479.752c.084.204.128.422.128.642zm9.473 1.675a1.675 1.675 0 100-3.35 1.675 1.675 0 000 3.35zM204 1.676a1.677 1.677 0 01-2.861 1.184 1.672 1.672 0 01-.363-1.826A1.68 1.68 0 01202.324 0 1.674 1.674 0 01204 1.676zm-90.859 14.048a1.675 1.675 0 100-3.35 1.675 1.675 0 000 3.35zm11.148 0a1.676 1.676 0 100-3.352 1.676 1.676 0 000 3.352zm11.146 0a1.676 1.676 0 100-3.35 1.676 1.676 0 000 3.35zm11.149 0a1.676 1.676 0 100-3.352 1.676 1.676 0 000 3.352zm11.148 0a1.676 1.676 0 100-3.35 1.676 1.676 0 000 3.35zm11.147 0a1.675 1.675 0 100-3.35 1.675 1.675 0 000 3.35zm12.824-1.675a1.677 1.677 0 01-2.861 1.184 1.672 1.672 0 01-.363-1.825 1.68 1.68 0 011.548-1.035 1.674 1.674 0 011.676 1.676zm9.473 1.675a1.675 1.675 0 100-3.35 1.675 1.675 0 000 3.35zM204 14.049a1.677 1.677 0 01-3.319.326 1.671 1.671 0 01.712-1.72 1.678 1.678 0 012.479.753c.084.203.128.42.128.64zm-90.859 14.048a1.675 1.675 0 100-3.35 1.675 1.675 0 000 3.35zm11.148 0a1.676 1.676 0 100-3.353 1.676 1.676 0 000 3.353zm11.146 0a1.676 1.676 0 100-3.351 1.676 1.676 0 000 3.351zm11.149 0a1.676 1.676 0 100-3.353 1.676 1.676 0 000 3.353zm11.148 0a1.676 1.676 0 100-3.351 1.676 1.676 0 000 3.351zm11.147 0a1.675 1.675 0 100-3.35 1.675 1.675 0 000 3.35zm12.824-1.676a1.677 1.677 0 11-3.224-.641 1.68 1.68 0 011.548-1.034 1.676 1.676 0 011.676 1.675zm9.473 1.676a1.675 1.675 0 100-3.35 1.675 1.675 0 000 3.35zM204 26.421a1.677 1.677 0 01-2.861 1.185 1.673 1.673 0 01-.363-1.826 1.68 1.68 0 011.548-1.034A1.677 1.677 0 01204 26.42zM113.141 40.47a1.675 1.675 0 100-3.35 1.675 1.675 0 000 3.35zm11.148 0a1.676 1.676 0 100-3.352 1.676 1.676 0 000 3.352zm11.146 0a1.676 1.676 0 100-3.351 1.676 1.676 0 000 3.351zm11.149 0a1.676 1.676 0 100-3.352 1.676 1.676 0 000 3.352zm11.148 0a1.676 1.676 0 100-3.351 1.676 1.676 0 000 3.351zm11.147 0a1.675 1.675 0 100-3.35 1.675 1.675 0 000 3.35zm12.824-1.676a1.677 1.677 0 01-3.319.327 1.67 1.67 0 01.712-1.72 1.678 1.678 0 012.479.752c.084.203.128.421.128.641zm9.473 1.676a1.675 1.675 0 100-3.35 1.675 1.675 0 000 3.35zM204 38.794a1.677 1.677 0 01-3.319.327 1.671 1.671 0 01.712-1.72A1.677 1.677 0 01204 38.794zm-90.859 14.049a1.675 1.675 0 100-3.351 1.675 1.675 0 000 3.35zm11.148 0a1.676 1.676 0 100-3.353 1.676 1.676 0 000 3.353zm11.146 0a1.676 1.676 0 100-3.352 1.676 1.676 0 000 3.352zm11.149 0a1.676 1.676 0 100-3.353 1.676 1.676 0 000 3.353zm11.148 0a1.676 1.676 0 100-3.352 1.676 1.676 0 000 3.352zm11.147 0a1.675 1.675 0 100-3.351 1.675 1.675 0 000 3.35zm12.824-1.676a1.677 1.677 0 11-3.224-.641 1.68 1.68 0 011.548-1.035 1.674 1.674 0 011.676 1.676zm9.473 1.676a1.675 1.675 0 100-3.351 1.675 1.675 0 000 3.35zM204 51.167a1.677 1.677 0 01-2.861 1.184 1.672 1.672 0 01-.363-1.825 1.68 1.68 0 011.548-1.035A1.674 1.674 0 01204 51.167zm-90.859 14.049a1.675 1.675 0 100-3.351 1.675 1.675 0 000 3.35zm11.148 0a1.676 1.676 0 100-3.353 1.676 1.676 0 000 3.353zm11.146 0a1.676 1.676 0 100-3.352 1.676 1.676 0 000 3.352zm11.149 0a1.676 1.676 0 100-3.353 1.676 1.676 0 000 3.353zm11.148 0a1.676 1.676 0 100-3.352 1.676 1.676 0 000 3.352zm11.147 0a1.675 1.675 0 100-3.351 1.675 1.675 0 000 3.35zm12.824-1.676a1.677 1.677 0 01-2.861 1.185 1.672 1.672 0 01-.363-1.826 1.68 1.68 0 011.548-1.035 1.676 1.676 0 011.676 1.676zm9.473 1.676a1.675 1.675 0 100-3.351 1.675 1.675 0 000 3.35zM204 63.54a1.677 1.677 0 01-3.319.327 1.671 1.671 0 01.712-1.72A1.677 1.677 0 01204 63.54zm-90.859 14.048a1.675 1.675 0 100-3.35 1.675 1.675 0 000 3.35zm11.148 0a1.676 1.676 0 100-3.352 1.676 1.676 0 000 3.352zm11.146 0a1.676 1.676 0 100-3.351 1.676 1.676 0 000 3.351zm11.149 0a1.676 1.676 0 100-3.352 1.676 1.676 0 000 3.352zm11.148 0a1.676 1.676 0 100-3.351 1.676 1.676 0 000 3.351zm11.147 0a1.675 1.675 0 100-3.35 1.675 1.675 0 000 3.35zm12.824-1.676a1.677 1.677 0 01-2.861 1.185 1.672 1.672 0 01-.363-1.826 1.68 1.68 0 011.548-1.034 1.674 1.674 0 011.676 1.675zm9.473 1.676a1.675 1.675 0 100-3.35 1.675 1.675 0 000 3.35zM204 75.912a1.677 1.677 0 01-2.861 1.185 1.673 1.673 0 01-.363-1.826 1.68 1.68 0 011.548-1.034A1.674 1.674 0 01204 75.912zM113.141 89.96a1.675 1.675 0 100-3.35 1.675 1.675 0 000 3.35zm11.148 0a1.676 1.676 0 100-3.352 1.676 1.676 0 000 3.353zm11.146 0a1.676 1.676 0 100-3.35 1.676 1.676 0 000 3.35zm11.149 0a1.676 1.676 0 100-3.352 1.676 1.676 0 000 3.353zm11.148 0a1.676 1.676 0 100-3.35 1.676 1.676 0 000 3.35zm11.147 0a1.675 1.675 0 100-3.35 1.675 1.675 0 000 3.35zm12.824-1.675a1.677 1.677 0 11-3.224-.641 1.68 1.68 0 011.548-1.035 1.674 1.674 0 011.676 1.676zm9.473 1.675a1.675 1.675 0 100-3.35 1.675 1.675 0 000 3.35zM204 88.285a1.677 1.677 0 11-3.353-.003 1.677 1.677 0 013.353.003zM3.351 100.639a1.678 1.678 0 01-2.002 1.643 1.674 1.674 0 01-1.221-2.285 1.675 1.675 0 013.223.642zm11.149 0a1.677 1.677 0 01-2.003 1.643 1.674 1.674 0 01-1.221-2.285 1.675 1.675 0 013.224.642zm11.146 0a1.677 1.677 0 01-2.002 1.643 1.674 1.674 0 01-1.221-2.285 1.676 1.676 0 013.223.642zm11.149 0a1.678 1.678 0 01-1.035 1.548 1.68 1.68 0 01-1.826-.364 1.674 1.674 0 112.86-1.184zm11.148 0a1.678 1.678 0 01-1.034 1.548 1.671 1.671 0 01-1.826-.364 1.672 1.672 0 01-.364-1.826 1.676 1.676 0 013.224.642zm11.147 0a1.672 1.672 0 01-1.035 1.547 1.68 1.68 0 01-1.826-.363 1.674 1.674 0 112.86-1.184zm11.148 0a1.678 1.678 0 01-1.034 1.548 1.671 1.671 0 01-1.826-.364 1.672 1.672 0 01.253-2.578 1.676 1.676 0 012.607 1.394zm11.148 0a1.673 1.673 0 01-1.034 1.548 1.674 1.674 0 01-2.19-2.19 1.677 1.677 0 013.224.642zm11.147 0a1.678 1.678 0 01-1.034 1.548 1.671 1.671 0 01-1.826-.364 1.672 1.672 0 01-.364-1.826 1.675 1.675 0 013.224.642zm11.148 0a1.678 1.678 0 01-1.034 1.548 1.67 1.67 0 01-1.826-.364 1.677 1.677 0 01-.363-1.826 1.673 1.673 0 012.733-.544c.314.315.49.741.49 1.186zM1.676 114.687a1.676 1.676 0 100-3.351 1.676 1.676 0 000 3.351zm11.148 0a1.676 1.676 0 100-3.351 1.676 1.676 0 000 3.351zm11.146 0a1.676 1.676 0 100-3.351 1.676 1.676 0 000 3.351zm12.825-1.676a1.676 1.676 0 11-3.352 0 1.676 1.676 0 013.352 0zm9.472 1.676a1.676 1.676 0 100-3.351 1.676 1.676 0 000 3.351zm12.823-1.676a1.676 1.676 0 11-3.352 0 1.676 1.676 0 013.351 0zm9.472 1.676a1.676 1.676 0 100-3.351 1.676 1.676 0 000 3.351zm12.824-1.676a1.677 1.677 0 11-3.353 0 1.677 1.677 0 013.353 0zm9.471 1.676a1.676 1.676 0 100-3.351 1.676 1.676 0 000 3.351zm11.149 0a1.675 1.675 0 100-3.35 1.675 1.675 0 000 3.35zM1.676 127.06a1.675 1.675 0 100-3.35 1.675 1.675 0 000 3.35zm11.148 0a1.675 1.675 0 100-3.35 1.675 1.675 0 000 3.35zm11.146 0a1.675 1.675 0 10.001-3.35 1.675 1.675 0 000 3.35zm12.825-1.675a1.678 1.678 0 01-1.035 1.548 1.671 1.671 0 01-1.826-.364 1.67 1.67 0 01-.363-1.826 1.676 1.676 0 013.224.642zm9.472 1.675a1.675 1.675 0 10.001-3.35 1.675 1.675 0 000 3.35zm12.823-1.675a1.672 1.672 0 01-1.035 1.548 1.68 1.68 0 01-1.826-.364 1.674 1.674 0 112.86-1.184zm9.472 1.675a1.675 1.675 0 10.001-3.35 1.675 1.675 0 000 3.35zm12.824-1.675a1.679 1.679 0 01-1.034 1.548 1.68 1.68 0 01-1.826-.364 1.675 1.675 0 112.86-1.184zm9.471 1.675a1.675 1.675 0 100-3.35 1.675 1.675 0 000 3.35zm11.149 0a1.675 1.675 0 100-3.35 1.675 1.675 0 000 3.35zM1.676 139.433a1.676 1.676 0 100-3.351 1.676 1.676 0 000 3.351zm11.148 0a1.676 1.676 0 100-3.351 1.676 1.676 0 000 3.351zm11.146 0a1.676 1.676 0 100-3.351 1.676 1.676 0 000 3.351zm12.825-1.676a1.673 1.673 0 01-1.035 1.548 1.68 1.68 0 01-1.826-.363 1.674 1.674 0 011.185-2.86 1.676 1.676 0 011.676 1.675zm9.472 1.676a1.676 1.676 0 100-3.351 1.676 1.676 0 000 3.351zm12.823-1.676a1.673 1.673 0 01-2.003 1.643 1.673 1.673 0 01-1.221-2.284 1.675 1.675 0 013.223.641zm9.472 1.676a1.676 1.676 0 100-3.351 1.676 1.676 0 000 3.351zm12.824-1.676a1.674 1.674 0 01-2.86 1.185 1.679 1.679 0 01-.363-1.826 1.677 1.677 0 013.223.641zm9.471 1.676a1.676 1.676 0 100-3.351 1.676 1.676 0 000 3.351zm11.149 0a1.675 1.675 0 100-3.35 1.675 1.675 0 000 3.35zM1.676 151.805a1.675 1.675 0 100-3.35 1.675 1.675 0 000 3.35zm11.148 0a1.675 1.675 0 100-3.35 1.675 1.675 0 000 3.35zm11.146 0a1.675 1.675 0 10.001-3.35 1.675 1.675 0 000 3.35zm12.825-1.675a1.678 1.678 0 01-1.035 1.548 1.671 1.671 0 01-1.826-.363 1.678 1.678 0 01.254-2.578 1.669 1.669 0 011.572-.155 1.665 1.665 0 01.907.907c.084.203.128.421.128.641zm9.472 1.675a1.675 1.675 0 10.001-3.35 1.675 1.675 0 000 3.35zm12.823-1.675a1.678 1.678 0 01-1.035 1.548 1.671 1.671 0 01-1.826-.364 1.671 1.671 0 01-.363-1.825 1.67 1.67 0 011.548-1.035 1.665 1.665 0 011.548 1.035c.084.203.127.421.127.641zm9.472 1.675a1.675 1.675 0 10.001-3.35 1.675 1.675 0 000 3.35zm12.824-1.675a1.679 1.679 0 01-1.034 1.548 1.671 1.671 0 01-1.826-.364 1.675 1.675 0 112.86-1.184zm9.471 1.675a1.675 1.675 0 100-3.35 1.675 1.675 0 000 3.35zm11.149 0a1.675 1.675 0 100-3.35 1.675 1.675 0 000 3.35zM1.676 164.178a1.676 1.676 0 100-3.351 1.676 1.676 0 000 3.351zm11.148 0a1.676 1.676 0 100-3.351 1.676 1.676 0 000 3.351zm11.146 0a1.676 1.676 0 100-3.351 1.676 1.676 0 000 3.351zm12.825-1.676a1.673 1.673 0 01-1.035 1.548 1.68 1.68 0 01-1.826-.363 1.674 1.674 0 011.826-2.733 1.681 1.681 0 01.907.907c.084.203.128.421.128.641zm9.472 1.676a1.676 1.676 0 100-3.351 1.676 1.676 0 000 3.351zm12.823-1.676a1.673 1.673 0 01-1.035 1.548 1.68 1.68 0 01-1.826-.363 1.674 1.674 0 011.826-2.733 1.681 1.681 0 01.907.907c.084.203.127.421.127.641zm9.472 1.676a1.676 1.676 0 100-3.351 1.676 1.676 0 000 3.351zm12.824-1.676a1.674 1.674 0 01-2.86 1.185 1.675 1.675 0 112.86-1.185zm9.471 1.676a1.676 1.676 0 100-3.351 1.676 1.676 0 000 3.351zm11.149 0a1.675 1.675 0 100-3.35 1.675 1.675 0 000 3.35zM1.676 176.551a1.676 1.676 0 100-3.351 1.676 1.676 0 000 3.351zm11.148 0a1.676 1.676 0 100-3.351 1.676 1.676 0 000 3.351zm11.146 0a1.676 1.676 0 100-3.351 1.676 1.676 0 000 3.351zm12.825-1.676a1.673 1.673 0 01-1.035 1.548 1.68 1.68 0 01-1.826-.363 1.674 1.674 0 112.86-1.185zm9.472 1.676a1.676 1.676 0 100-3.351 1.676 1.676 0 000 3.351zm12.823-1.676a1.673 1.673 0 01-1.035 1.548 1.68 1.68 0 01-1.826-.363 1.674 1.674 0 112.86-1.185zm9.472 1.676a1.676 1.676 0 100-3.351 1.676 1.676 0 000 3.351zm12.824-1.676a1.674 1.674 0 01-2.86 1.185 1.675 1.675 0 112.86-1.185zm9.471 1.676a1.676 1.676 0 100-3.351 1.676 1.676 0 000 3.351zm11.149 0a1.675 1.675 0 100-3.35 1.675 1.675 0 000 3.35zM1.676 188.924a1.676 1.676 0 100-3.351 1.676 1.676 0 000 3.351zm11.148 0a1.676 1.676 0 100-3.351 1.676 1.676 0 000 3.351zm11.146 0a1.676 1.676 0 100-3.351 1.676 1.676 0 000 3.351zm12.825-1.676a1.673 1.673 0 01-1.035 1.548 1.68 1.68 0 01-1.826-.363 1.674 1.674 0 112.37-2.369 1.67 1.67 0 01.49 1.184zm9.472 1.676a1.676 1.676 0 100-3.351 1.676 1.676 0 000 3.351zm12.823-1.676a1.673 1.673 0 01-1.035 1.548 1.68 1.68 0 01-1.826-.363 1.674 1.674 0 112.86-1.185zm9.472 1.676a1.676 1.676 0 100-3.351 1.676 1.676 0 000 3.351zm12.824-1.676a1.674 1.674 0 01-2.86 1.185 1.675 1.675 0 112.86-1.185zm9.471 1.676a1.676 1.676 0 100-3.351 1.676 1.676 0 000 3.351zm11.149 0a1.675 1.675 0 100-3.35 1.675 1.675 0 000 3.35zM1.676 201.297a1.676 1.676 0 10-.001-3.352 1.676 1.676 0 000 3.352zm11.148 0a1.676 1.676 0 10-.001-3.352 1.676 1.676 0 00.001 3.352zm11.146 0a1.676 1.676 0 100-3.353 1.676 1.676 0 000 3.353zm12.825-1.676a1.678 1.678 0 01-1.035 1.548 1.671 1.671 0 01-1.826-.363 1.678 1.678 0 01.254-2.578 1.677 1.677 0 012.48.752c.083.203.127.421.127.641zm9.472 1.676a1.676 1.676 0 100-3.353 1.676 1.676 0 000 3.353zm12.823-1.676a1.678 1.678 0 01-1.035 1.548 1.671 1.671 0 01-1.826-.363 1.678 1.678 0 01.254-2.578 1.677 1.677 0 012.606 1.393zm9.472 1.676a1.676 1.676 0 100-3.352 1.676 1.676 0 000 3.352zm12.824-1.676a1.679 1.679 0 01-1.034 1.548 1.671 1.671 0 01-1.826-.363 1.679 1.679 0 01-.363-1.826 1.672 1.672 0 011.548-1.035 1.68 1.68 0 011.675 1.676zm9.471 1.676a1.676 1.676 0 100-3.352 1.676 1.676 0 000 3.352zm11.149 0a1.676 1.676 0 10-.002-3.352 1.676 1.676 0 00.002 3.352zm12.81-100.658a1.678 1.678 0 01-1.034 1.548 1.67 1.67 0 01-1.826-.364 1.67 1.67 0 01-.364-1.826 1.676 1.676 0 013.224.642zm11.149 0a1.68 1.68 0 01-1.035 1.548 1.67 1.67 0 01-1.826-.364 1.677 1.677 0 01-.363-1.826 1.673 1.673 0 012.733-.543c.314.314.491.74.491 1.185zm11.146 0a1.678 1.678 0 01-1.034 1.548 1.67 1.67 0 01-1.826-.364 1.67 1.67 0 01-.364-1.826 1.68 1.68 0 011.548-1.034 1.679 1.679 0 011.549 1.034c.084.204.127.422.127.642zm11.149 0a1.68 1.68 0 01-1.035 1.548 1.67 1.67 0 01-1.826-.364 1.677 1.677 0 01-.363-1.826 1.673 1.673 0 012.733-.543c.314.314.491.74.491 1.185zm11.148 0a1.678 1.678 0 01-1.034 1.548 1.675 1.675 0 111.034-1.548zm11.147 0a1.68 1.68 0 01-1.035 1.548 1.67 1.67 0 01-1.826-.364 1.677 1.677 0 01-.363-1.826 1.673 1.673 0 012.733-.543 1.683 1.683 0 01.491 1.185zm11.148 0a1.674 1.674 0 01-1.035 1.547 1.68 1.68 0 01-1.826-.363 1.671 1.671 0 01-.363-1.826 1.68 1.68 0 011.548-1.034 1.674 1.674 0 011.676 1.676zm11.148 0a1.678 1.678 0 01-1.034 1.548 1.67 1.67 0 01-1.826-.364 1.67 1.67 0 01-.363-1.826 1.673 1.673 0 013.096 0c.084.204.127.422.127.642zm11.149 0a1.674 1.674 0 01-1.035 1.548 1.673 1.673 0 01-2.284-1.222 1.67 1.67 0 01.712-1.72A1.678 1.678 0 01204 100.64zm-90.859 14.048a1.675 1.675 0 100-3.35 1.675 1.675 0 000 3.35zm11.148 0a1.676 1.676 0 100-3.352 1.676 1.676 0 000 3.352zm11.146 0a1.675 1.675 0 10.001-3.35 1.675 1.675 0 00-.001 3.35zm11.149 0a1.676 1.676 0 100-3.352 1.676 1.676 0 000 3.352zm11.148 0a1.675 1.675 0 10.001-3.35 1.675 1.675 0 00-.001 3.35zm11.147 0a1.675 1.675 0 100-3.35 1.675 1.675 0 000 3.35zm12.824-1.675a1.674 1.674 0 01-1.035 1.548 1.679 1.679 0 01-1.826-.364 1.671 1.671 0 01-.363-1.826 1.68 1.68 0 011.548-1.034 1.677 1.677 0 011.676 1.676zm9.473 1.675a1.675 1.675 0 100-3.35 1.675 1.675 0 000 3.35zM204 113.012a1.674 1.674 0 01-1.035 1.548 1.673 1.673 0 01-2.284-1.222 1.67 1.67 0 01.712-1.72 1.678 1.678 0 012.479.752c.084.204.128.422.128.642zm-90.859 14.048a1.675 1.675 0 100-3.35 1.675 1.675 0 000 3.35zm11.148 0a1.676 1.676 0 100-3.352 1.676 1.676 0 000 3.352zm11.146 0a1.676 1.676 0 100-3.351 1.676 1.676 0 000 3.351zm11.149 0a1.676 1.676 0 100-3.352 1.676 1.676 0 000 3.352zm11.148 0a1.676 1.676 0 100-3.351 1.676 1.676 0 000 3.351zm11.147 0a1.675 1.675 0 100-3.35 1.675 1.675 0 000 3.35zm12.824-1.676a1.677 1.677 0 01-2.861 1.185 1.671 1.671 0 01-.363-1.826 1.68 1.68 0 011.548-1.035 1.678 1.678 0 011.676 1.676zm9.473 1.676a1.675 1.675 0 100-3.35 1.675 1.675 0 000 3.35zM204 125.384a1.675 1.675 0 01-2.003 1.643 1.671 1.671 0 01-1.316-1.316 1.67 1.67 0 01.712-1.72 1.68 1.68 0 011.572-.155 1.68 1.68 0 011.035 1.548zm-90.859 14.048a1.675 1.675 0 100-3.35 1.675 1.675 0 000 3.35zm11.148 0a1.676 1.676 0 100-3.352 1.676 1.676 0 000 3.352zm11.146 0a1.675 1.675 0 10.001-3.35 1.675 1.675 0 00-.001 3.35zm11.149 0a1.676 1.676 0 100-3.352 1.676 1.676 0 000 3.352zm11.148 0a1.675 1.675 0 10.001-3.35 1.675 1.675 0 00-.001 3.35zm11.147 0a1.675 1.675 0 100-3.35 1.675 1.675 0 000 3.35zm12.824-1.675a1.68 1.68 0 01-1.035 1.548 1.679 1.679 0 01-1.826-.364 1.675 1.675 0 112.861-1.184zm9.473 1.675a1.675 1.675 0 100-3.35 1.675 1.675 0 000 3.35zM204 137.757a1.68 1.68 0 01-1.035 1.548 1.679 1.679 0 01-1.826-.364 1.671 1.671 0 01-.363-1.826 1.68 1.68 0 011.548-1.034 1.677 1.677 0 011.676 1.676zm-90.859 14.048a1.675 1.675 0 100-3.35 1.675 1.675 0 000 3.35zm11.148 0a1.676 1.676 0 100-3.352 1.676 1.676 0 000 3.352zm11.146 0a1.675 1.675 0 10.001-3.35 1.675 1.675 0 00-.001 3.35zm11.149 0a1.676 1.676 0 100-3.352 1.676 1.676 0 000 3.352zm11.148 0a1.675 1.675 0 10.001-3.35 1.675 1.675 0 00-.001 3.35zm11.147 0a1.675 1.675 0 100-3.35 1.675 1.675 0 000 3.35zm12.824-1.675a1.68 1.68 0 01-1.035 1.548 1.67 1.67 0 01-1.826-.364 1.668 1.668 0 01-.363-1.825 1.675 1.675 0 013.224.641zm9.473 1.675a1.675 1.675 0 100-3.35 1.675 1.675 0 000 3.35zM204 150.13a1.68 1.68 0 01-1.035 1.548 1.67 1.67 0 01-1.826-.364 1.671 1.671 0 01-.363-1.826 1.678 1.678 0 013.096.001c.084.203.128.421.128.641zm-90.859 14.049a1.676 1.676 0 10-.002-3.352 1.676 1.676 0 00.002 3.352zm11.148 0a1.677 1.677 0 10-.002-3.354 1.677 1.677 0 00.002 3.354zm11.146 0a1.676 1.676 0 100-3.352 1.676 1.676 0 000 3.352zm11.149 0a1.677 1.677 0 10-.002-3.354 1.677 1.677 0 00.002 3.354zm11.148 0a1.676 1.676 0 100-3.352 1.676 1.676 0 000 3.352zm11.147 0a1.676 1.676 0 10-.002-3.352 1.676 1.676 0 00.002 3.352zm12.824-1.676a1.68 1.68 0 01-1.035 1.548 1.67 1.67 0 01-1.826-.363 1.675 1.675 0 112.861-1.185zm9.473 1.676a1.676 1.676 0 10-.002-3.352 1.676 1.676 0 00.002 3.352zM204 162.503a1.68 1.68 0 01-1.035 1.548 1.67 1.67 0 01-1.826-.364 1.671 1.671 0 01-.363-1.826 1.678 1.678 0 013.096.001c.084.203.128.421.128.641zm-90.859 14.048a1.675 1.675 0 100-3.35 1.675 1.675 0 000 3.35zm11.148 0a1.676 1.676 0 100-3.352 1.676 1.676 0 000 3.352zm11.146 0a1.676 1.676 0 100-3.351 1.676 1.676 0 000 3.351zm11.149 0a1.676 1.676 0 100-3.352 1.676 1.676 0 000 3.352zm11.148 0a1.676 1.676 0 100-3.351 1.676 1.676 0 000 3.351zm11.147 0a1.675 1.675 0 100-3.35 1.675 1.675 0 000 3.35zm12.824-1.676a1.675 1.675 0 01-2.003 1.644 1.671 1.671 0 01-1.221-2.285 1.68 1.68 0 011.548-1.034 1.673 1.673 0 011.676 1.675zm9.473 1.676a1.675 1.675 0 100-3.35 1.675 1.675 0 000 3.35zM204 174.875a1.675 1.675 0 01-2.003 1.644 1.68 1.68 0 01-1.316-1.317 1.67 1.67 0 01.712-1.72 1.678 1.678 0 012.116.209c.314.314.491.74.491 1.184zm-90.859 14.049a1.676 1.676 0 10-.002-3.352 1.676 1.676 0 00.002 3.352zm11.148 0a1.677 1.677 0 10-.002-3.354 1.677 1.677 0 00.002 3.354zm11.146 0a1.676 1.676 0 100-3.352 1.676 1.676 0 000 3.352zm11.149 0a1.677 1.677 0 10-.002-3.354 1.677 1.677 0 00.002 3.354zm11.148 0a1.676 1.676 0 100-3.352 1.676 1.676 0 000 3.352zm11.147 0a1.676 1.676 0 10-.002-3.352 1.676 1.676 0 00.002 3.352zm12.824-1.676a1.68 1.68 0 01-1.035 1.548 1.67 1.67 0 01-1.826-.363 1.675 1.675 0 112.861-1.185zm9.473 1.676a1.676 1.676 0 10-.002-3.352 1.676 1.676 0 00.002 3.352zM204 187.248a1.68 1.68 0 01-1.035 1.548 1.67 1.67 0 01-1.826-.363 1.675 1.675 0 112.861-1.185zm-90.859 14.049a1.676 1.676 0 10-.002-3.352 1.676 1.676 0 00.002 3.352zm11.148 0a1.677 1.677 0 10-.002-3.354 1.677 1.677 0 00.002 3.354zm11.146 0a1.676 1.676 0 100-3.352 1.676 1.676 0 000 3.352zm11.149 0a1.677 1.677 0 10-.002-3.354 1.677 1.677 0 00.002 3.354zm11.148 0a1.676 1.676 0 100-3.352 1.676 1.676 0 000 3.352zm11.147 0a1.676 1.676 0 10-.002-3.352 1.676 1.676 0 00.002 3.352zm12.824-1.676a1.68 1.68 0 01-1.035 1.548 1.67 1.67 0 01-1.826-.363 1.675 1.675 0 112.861-1.185zm9.473 1.676a1.676 1.676 0 10-.002-3.352 1.676 1.676 0 00.002 3.352zM204 199.621a1.68 1.68 0 01-1.035 1.548 1.67 1.67 0 01-1.826-.363 1.675 1.675 0 112.861-1.185z" fill="#323B43"/></svg>